<svg width="201" height="33" xmlns="http://www.w3.org/2000/svg">
 <!-- Created with Method Draw - http://github.com/duopixel/Method-Draw/ -->
 <g>
  <title>background</title>
  <rect fill="#ccc" id="canvas_background" height="35" width="203" y="-1" x="-1"/>
  <g display="none" overflow="visible" y="0" x="0" height="100%" width="100%" id="canvasGrid">
   <rect fill="url(#gridpattern)" stroke-width="0" y="0" x="0" height="100%" width="100%"/>
  </g>
 </g>
 <g>
  <title>Layer 1</title>
  <text xml:space="preserve" text-anchor="start" font-family="'Courier New', Courier, monospace" font-size="24" id="svg_1" y="23.243607" x="0" stroke-width="0" stroke="#000" fill="#000000">HEADLINEAR</text>
  <path id="svg_2" d="m164.582963,12.744452c0.604381,0.570346 1.205439,1.310015 1.822148,2.145623c0.088948,-0.127895 0.172899,-0.25188 0.261877,-0.382478c0.892595,-1.310064 1.904107,-2.79338 3.037581,-4.228694c0.179911,-0.233187 0.368838,-0.429126 0.552085,-0.649051c-0.850614,-0.998182 -1.788836,-1.956393 -2.920652,-2.780023c-1.750182,-1.290061 -4.036792,-2.186976 -6.578609,-2.168356l-11.015214,0l0,6.295791l11.017215,0c1.531947,0.029315 2.503169,0.525039 3.823572,1.767189l-0.000004,0zm23.868549,5.15231l0,3.940795c-1.610575,-0.004014 -4.279665,-0.004014 -5.035987,-0.004014c-2.235921,-0.051947 -3.70327,-0.764964 -5.229898,-2.005708c-0.660366,-0.542388 -1.292724,-1.222132 -1.916438,-1.979087c-0.468102,0.657006 -0.939894,1.335385 -1.419998,2.040342c-0.583404,0.852994 -1.184454,1.729933 -1.811499,2.592179c-0.155603,0.211908 -0.330178,0.430431 -0.494444,0.645057c2.541515,2.669374 6.066843,4.970931 10.83363,4.998946l5.074633,0l0,3.940802l6.140162,-3.538289l6.150518,-3.546336l-6.150518,-3.542326l-6.140162,-3.542358l0,-0.000002zm-10.265887,-4.912455c1.526628,-1.243417 2.993977,-1.953735 5.229898,-2.005732c0.756323,0 3.425412,0 5.035987,-0.002652l0,3.94087l6.140162,-3.53971l6.150518,-3.542358l-6.150518,-3.545073l-6.140162,-3.539646l0,3.936821l-5.074633,0c-5.751983,0.0347 -9.717475,3.371803 -12.299263,6.676887c-2.630469,3.339852 -4.538243,6.862227 -6.494653,8.702671c-1.322401,1.238081 -2.291623,1.739144 -3.823572,1.767158l-11.017215,0l0,6.295738l11.017215,0c2.541499,0.018663 4.828087,-0.876895 6.578273,-2.169623c1.767863,-1.283383 3.095571,-2.883987 4.286683,-4.495242c2.342575,-3.245191 4.286668,-6.611585 6.561278,-8.480106l0.000002,-0.000002z" stroke-width="1.5" stroke="#000" fill="#fff"/>
 </g>
</svg>